<svg width="176" height="75" viewBox="0 0 176 75" fill="none" xmlns="http://www.w3.org/2000/svg">
<path d="M3.34733 46.3278L20.4064 74.6348L37.4654 46.3278C39.1927 43.3325 40.1017 39.9355 40.101 36.4778C40.1004 33.0201 39.1902 29.6235 37.4617 26.6288C35.7333 23.6341 33.2475 21.1468 30.2538 19.4166C27.2602 17.6864 23.864 16.7742 20.4064 16.7715C16.9487 16.7742 13.5525 17.6864 10.5589 19.4166C7.56522 21.1468 5.07939 23.6341 3.35096 26.6288C1.62252 29.6235 0.712307 33.0201 0.71167 36.4778C0.711034 39.9355 1.62 43.3325 3.34733 46.3278Z" fill="#FF4433"/>
<path d="M20.4081 43.6374C24.9715 43.6374 28.6709 39.9381 28.6709 35.3748C28.6709 30.8114 24.9715 27.1121 20.4081 27.1121C15.8448 27.1121 12.1455 30.8114 12.1455 35.3748C12.1455 39.9381 15.8448 43.6374 20.4081 43.6374Z" fill="white"/>
<g filter="url(#filter0_d_100_922)">
<rect x="47.1011" y="16.7715" width="108" height="33" rx="16.5" fill="white" shape-rendering="crispEdges"/>
<rect x="47.6011" y="17.2715" width="107" height="32" rx="16" stroke="#FF4433" shape-rendering="crispEdges"/>
<path d="M67.6251 32.6615C68.2131 32.8482 68.6704 33.1515 68.9971 33.5715C69.3331 33.9822 69.5011 34.4675 69.5011 35.0275C69.5011 35.6155 69.3097 36.1288 68.9271 36.5675C68.5444 36.9968 68.0311 37.3282 67.3871 37.5615C66.7524 37.7948 66.0571 37.9115 65.3011 37.9115C64.6477 37.9115 63.9897 37.8228 63.3271 37.6455C62.6737 37.4588 62.0671 37.1835 61.5071 36.8195L62.0951 35.4895C62.5244 35.7788 63.0004 36.0028 63.5231 36.1615C64.0457 36.3108 64.5637 36.3855 65.0771 36.3855C65.8144 36.3855 66.4257 36.2408 66.9111 35.9515C67.4057 35.6622 67.6531 35.2655 67.6531 34.7615C67.6531 34.3322 67.4757 34.0055 67.1211 33.7815C66.7664 33.5575 66.2764 33.4455 65.6511 33.4455H63.3691V32.0175H65.5111C66.0524 32.0175 66.4771 31.9055 66.7851 31.6815C67.0931 31.4575 67.2471 31.1542 67.2471 30.7715C67.2471 30.3142 67.0371 29.9595 66.6171 29.7075C66.2064 29.4555 65.6791 29.3295 65.0351 29.3295C64.5964 29.3295 64.1437 29.3948 63.6771 29.5255C63.2104 29.6468 62.7717 29.8288 62.3611 30.0715L61.7871 28.6015C62.2911 28.3308 62.8231 28.1302 63.3831 27.9995C63.9524 27.8595 64.5171 27.7895 65.0771 27.7895C65.8051 27.7895 66.4724 27.9015 67.0791 28.1255C67.6951 28.3495 68.1851 28.6715 68.5491 29.0915C68.9131 29.5022 69.0951 29.9875 69.0951 30.5475C69.0951 31.0328 68.9644 31.4575 68.7031 31.8215C68.4417 32.1855 68.0824 32.4655 67.6251 32.6615ZM74.8969 36.3855C75.7089 36.3855 76.3855 36.1148 76.9269 35.5735L77.8509 36.6515C77.5242 37.0528 77.1042 37.3562 76.5909 37.5615C76.0775 37.7668 75.4989 37.8695 74.8549 37.8695C74.0335 37.8695 73.3102 37.7062 72.6849 37.3795C72.0595 37.0528 71.5742 36.6002 71.2289 36.0215C70.8929 35.4335 70.7249 34.7708 70.7249 34.0335C70.7249 33.3055 70.8882 32.6522 71.2149 32.0735C71.5509 31.4855 72.0082 31.0282 72.5869 30.7015C73.1749 30.3748 73.8375 30.2115 74.5749 30.2115C75.2749 30.2115 75.9095 30.3655 76.4789 30.6735C77.0575 30.9722 77.5149 31.4062 77.8509 31.9755C78.1869 32.5355 78.3549 33.1935 78.3549 33.9495L72.6289 35.0695C72.8062 35.4988 73.0909 35.8255 73.4829 36.0495C73.8749 36.2735 74.3462 36.3855 74.8969 36.3855ZM74.5749 31.6115C73.9309 31.6115 73.4082 31.8215 73.0069 32.2415C72.6149 32.6615 72.4189 33.2262 72.4189 33.9355V33.9495L76.6469 33.1375C76.5255 32.6802 76.2782 32.3115 75.9049 32.0315C75.5409 31.7515 75.0975 31.6115 74.5749 31.6115ZM83.7602 30.2115C84.5349 30.2115 85.2115 30.3702 85.7902 30.6875C86.3782 31.0048 86.8309 31.4528 87.1482 32.0315C87.4749 32.6102 87.6382 33.2822 87.6382 34.0475C87.6382 34.8035 87.4842 35.4708 87.1762 36.0495C86.8682 36.6282 86.4342 37.0762 85.8742 37.3935C85.3235 37.7108 84.6842 37.8695 83.9562 37.8695C82.9202 37.8695 82.1082 37.5382 81.5202 36.8755V40.4875H79.7562V34.0615C79.7562 33.3055 79.9242 32.6382 80.2602 32.0595C80.5962 31.4715 81.0629 31.0188 81.6602 30.7015C82.2669 30.3748 82.9669 30.2115 83.7602 30.2115ZM83.6902 36.3855C84.3435 36.3855 84.8755 36.1708 85.2862 35.7415C85.6969 35.3028 85.9022 34.7382 85.9022 34.0475C85.9022 33.3568 85.6969 32.7922 85.2862 32.3535C84.8755 31.9148 84.3435 31.6955 83.6902 31.6955C83.0275 31.6955 82.4955 31.9102 82.0942 32.3395C81.6929 32.7688 81.4922 33.3335 81.4922 34.0335C81.4922 34.7335 81.6929 35.3028 82.0942 35.7415C82.5049 36.1708 83.0369 36.3855 83.6902 36.3855ZM89.3884 30.2955H91.1384V33.3335H94.9044V30.2955H96.6544V37.7715H94.9044V34.8175H91.1384V37.7715H89.3884V30.2955ZM102.248 37.9675C101.118 37.9675 100.264 37.7062 99.6857 37.1835C99.1164 36.6608 98.8317 35.9048 98.8317 34.9155V30.2955H100.568V32.9835C100.782 32.8062 101.076 32.6568 101.45 32.5355C101.823 32.4142 102.248 32.3535 102.724 32.3535C103.638 32.3535 104.352 32.5868 104.866 33.0535C105.379 33.5202 105.636 34.1828 105.636 35.0415C105.636 35.9562 105.328 36.6748 104.712 37.1975C104.105 37.7108 103.284 37.9675 102.248 37.9675ZM106.574 30.2955H108.324V37.7715H106.574V30.2955ZM102.248 36.6795C102.761 36.6795 103.158 36.5302 103.438 36.2315C103.718 35.9235 103.858 35.5362 103.858 35.0695C103.858 34.6215 103.713 34.2622 103.424 33.9915C103.144 33.7208 102.742 33.5855 102.22 33.5855C101.837 33.5855 101.501 33.6602 101.212 33.8095C100.932 33.9588 100.717 34.1688 100.568 34.4395V35.0695C100.568 35.5735 100.712 35.9702 101.002 36.2595C101.291 36.5395 101.706 36.6795 102.248 36.6795ZM121.694 30.2955V37.7715H110.676V30.2955H112.426V36.2875H115.324V30.2955H117.074V36.2875H119.944V30.2955H121.694ZM127.155 34.7755H125.797V37.7715H124.047V30.2955H125.797V33.3195H127.197L129.409 30.2955H131.285L128.569 33.8935L131.467 37.7715H129.409L127.155 34.7755ZM135.787 37.8695C135.031 37.8695 134.349 37.7062 133.743 37.3795C133.136 37.0528 132.66 36.6002 132.315 36.0215C131.979 35.4335 131.811 34.7708 131.811 34.0335C131.811 33.2962 131.979 32.6382 132.315 32.0595C132.66 31.4808 133.136 31.0282 133.743 30.7015C134.349 30.3748 135.031 30.2115 135.787 30.2115C136.552 30.2115 137.238 30.3748 137.845 30.7015C138.451 31.0282 138.923 31.4808 139.259 32.0595C139.604 32.6382 139.777 33.2962 139.777 34.0335C139.777 34.7708 139.604 35.4335 139.259 36.0215C138.923 36.6002 138.451 37.0528 137.845 37.3795C137.238 37.7062 136.552 37.8695 135.787 37.8695ZM135.787 36.3715C136.431 36.3715 136.963 36.1568 137.383 35.7275C137.803 35.2982 138.013 34.7335 138.013 34.0335C138.013 33.3335 137.803 32.7688 137.383 32.3395C136.963 31.9102 136.431 31.6955 135.787 31.6955C135.143 31.6955 134.611 31.9102 134.191 32.3395C133.78 32.7688 133.575 33.3335 133.575 34.0335C133.575 34.7335 133.78 35.2982 134.191 35.7275C134.611 36.1568 135.143 36.3715 135.787 36.3715Z" fill="#FF4433"/>
</g>
<defs>
<filter id="filter0_d_100_922" x="27.1011" y="0.771484" width="148" height="73" filterUnits="userSpaceOnUse" color-interpolation-filters="sRGB">
<feFlood flood-opacity="0" result="BackgroundImageFix"/>
<feColorMatrix in="SourceAlpha" type="matrix" values="0 0 0 0 0 0 0 0 0 0 0 0 0 0 0 0 0 0 127 0" result="hardAlpha"/>
<feOffset dy="4"/>
<feGaussianBlur stdDeviation="10"/>
<feComposite in2="hardAlpha" operator="out"/>
<feColorMatrix type="matrix" values="0 0 0 0 1 0 0 0 0 0.266667 0 0 0 0 0.2 0 0 0 0.2 0"/>
<feBlend mode="normal" in2="BackgroundImageFix" result="effect1_dropShadow_100_922"/>
<feBlend mode="normal" in="SourceGraphic" in2="effect1_dropShadow_100_922" result="shape"/>
</filter>
</defs>
</svg>
