<svg width="14" height="15" viewBox="0 0 14 15" fill="none" xmlns="http://www.w3.org/2000/svg">
<path d="M7.00224 0C4.13539 0 3.29693 0.00303453 3.13396 0.0169031C2.54563 0.0670747 2.17954 0.16211 1.78069 0.365826C1.47333 0.522415 1.23092 0.70392 0.991679 0.958355C0.55598 1.42236 0.291919 1.99321 0.196326 2.67178C0.149854 3.0012 0.136332 3.06838 0.133586 4.75104C0.132532 5.31192 0.133586 6.05009 0.133586 7.04019C0.133586 9.97898 0.136752 10.8383 0.150487 11.0052C0.198018 11.5925 0.287797 11.962 0.477922 12.3662C0.841273 13.1399 1.53522 13.7207 2.35276 13.9375C2.63583 14.0122 2.94848 14.0534 3.34985 14.0729C3.51991 14.0805 5.25321 14.0859 6.98756 14.0859C8.72192 14.0859 10.4563 14.0838 10.6221 14.0751C11.0869 14.0527 11.3567 14.0155 11.6551 13.9364C12.4779 13.7186 13.1592 13.1464 13.5299 12.3619C13.7164 11.9674 13.8109 11.5838 13.8537 11.0272C13.863 10.9058 13.8669 8.97078 13.8669 7.03836C13.8669 5.1056 13.8627 3.17415 13.8534 3.05278C13.8101 2.48713 13.7155 2.10678 13.5231 1.70475C13.3652 1.37566 13.1898 1.12989 12.9353 0.878605C12.481 0.433449 11.9254 0.162541 11.2634 0.0645832C10.9426 0.0170096 10.8787 0.00292277 9.23726 0H7.00224Z" fill="#45403D"/>
<path d="M7.0025 1.70898V1.70996C8.38884 1.70996 8.56428 1.71474 9.1109 1.74023C9.6642 1.7662 10.0473 1.85625 10.3843 1.99023C10.7326 2.12867 11.0285 2.31559 11.3228 2.61719C11.6171 2.91862 11.7989 3.22235 11.9341 3.57812C12.0638 3.92192 12.1514 4.31359 12.1773 4.87988C12.2019 5.44011 12.2086 5.62029 12.2086 7.04199C12.2086 8.46381 12.2019 8.64374 12.1773 9.2041C12.1578 9.62871 12.1037 9.95474 12.023 10.2363L11.9341 10.5049C11.7988 10.8607 11.6172 11.1653 11.3228 11.4668C11.0288 11.7684 10.7323 11.9552 10.3843 12.0938C10.0479 12.2278 9.66515 12.3178 9.11188 12.3438C8.56496 12.3693 8.38959 12.375 7.0025 12.375C5.61529 12.375 5.43914 12.3693 4.89215 12.3438C4.33921 12.3178 3.95699 12.2277 3.62067 12.0938C3.27284 11.9552 2.97527 11.7685 2.68121 11.4668C2.38691 11.1653 2.20585 10.8608 2.07086 10.5049C1.94049 10.161 1.85215 9.77025 1.82672 9.2041C1.80195 8.6437 1.79645 8.46378 1.79645 7.04199C1.79645 5.62039 1.80228 5.44001 1.82672 4.87988C1.85159 4.31372 1.94 3.92221 2.07086 3.57812C2.20615 3.22242 2.38782 2.91867 2.68219 2.61719C2.97634 2.31564 3.27276 2.12873 3.62067 1.99023C3.95681 1.85624 4.33911 1.76623 4.89215 1.74023C5.43898 1.71473 5.61537 1.70996 7.00153 1.70996V1.70898H7.0025ZM6.44391 2.85059C5.58056 2.85204 5.39593 2.85896 4.94391 2.87988C4.45743 2.90281 4.19763 2.98487 4.02789 3.05273C3.80262 3.14264 3.644 3.24883 3.47516 3.42188C3.30639 3.5949 3.2035 3.7578 3.11578 3.98926C3.0496 4.16395 2.96816 4.43029 2.94586 4.92969C2.9215 5.47904 2.91657 5.64227 2.91656 7.03906C2.91656 8.43622 2.92149 8.60098 2.94586 9.15039C2.96806 9.64927 3.04964 9.91542 3.11578 10.0898L3.18512 10.252C3.25917 10.4035 3.34854 10.5274 3.47516 10.6572C3.64394 10.8302 3.8028 10.9357 4.02789 11.0254C4.19792 11.093 4.4575 11.1762 4.94391 11.1992C5.47981 11.2242 5.63974 11.2295 7.0025 11.2295C8.36507 11.2295 8.5255 11.2242 9.0611 11.1992C9.54763 11.1764 9.8076 11.0942 9.97711 11.0264L10.1353 10.9551C10.2826 10.8795 10.4032 10.787 10.5298 10.6572C10.6986 10.4843 10.8016 10.3221 10.8892 10.0908L10.941 9.94043C10.9927 9.76848 11.0424 9.52495 11.0591 9.15039C11.0835 8.60098 11.0884 8.43699 11.0884 7.04102C11.0884 5.6448 11.0835 5.4801 11.0591 4.93066C11.0369 4.43176 10.9554 4.16563 10.8892 3.99121L10.8199 3.8291C10.7458 3.67735 10.6566 3.55277 10.5298 3.42285C10.361 3.24973 10.2024 3.14436 9.97711 3.05469C9.80719 2.98708 9.54744 2.90463 9.0611 2.88184C8.52542 2.85689 8.36514 2.85156 7.0025 2.85156H6.44391V2.85059ZM7.0025 4.25488C8.50823 4.25488 9.72516 5.50491 9.72516 7.04199C9.72514 8.57908 8.50819 9.8291 7.0025 9.8291C5.49697 9.82894 4.28084 8.579 4.28082 7.04199C4.28082 5.50499 5.49693 4.25505 7.0025 4.25488ZM7.0025 5.39746C6.12008 5.39763 5.40094 6.13151 5.40094 7.04199C5.40096 7.95236 6.12009 8.68636 7.0025 8.68652C7.88495 8.68652 8.60502 7.95245 8.60504 7.04199C8.60504 6.13141 7.88496 5.39746 7.0025 5.39746Z" fill="white" stroke="white" stroke-width="0.2"/>
</svg>
