<svg width="135" height="27" viewBox="0 0 135 27" fill="none" xmlns="http://www.w3.org/2000/svg">
<path d="M12.5007 2.77207C12.812 1.87651 14.0785 1.87651 14.3898 2.77208L16.378 8.4917C16.5153 8.88677 16.884 9.15464 17.3022 9.16316L23.3562 9.28654C24.3042 9.30585 24.6955 10.5104 23.94 11.0832L19.1147 14.7415C18.7814 14.9942 18.6406 15.4276 18.7617 15.8279L20.5151 21.6238C20.7897 22.5313 19.7651 23.2758 18.9868 22.7342L14.0165 19.2755C13.6731 19.0366 13.2174 19.0366 12.8741 19.2755L7.90375 22.7342C7.12551 23.2758 6.10086 22.5313 6.37542 21.6238L8.12889 15.8279C8.25001 15.4276 8.10918 14.9942 7.77588 14.7415L2.95056 11.0832C2.19503 10.5104 2.58641 9.30585 3.53433 9.28654L9.58839 9.16316C10.0066 9.15464 10.3753 8.88677 10.5126 8.4917L12.5007 2.77207Z" fill="#FFCC00"/>
<path d="M39.3913 2.77207C39.7026 1.87651 40.9691 1.87651 41.2804 2.77208L43.2685 8.4917C43.4059 8.88677 43.7746 9.15464 44.1927 9.16316L50.2468 9.28654C51.1947 9.30585 51.5861 10.5104 50.8306 11.0832L46.0052 14.7415C45.672 14.9942 45.5311 15.4276 45.6522 15.8279L47.4057 21.6238C47.6803 22.5313 46.6556 23.2758 45.8774 22.7342L40.907 19.2755C40.5637 19.0366 40.108 19.0366 39.7647 19.2755L34.7943 22.7342C34.0161 23.2758 32.9914 22.5313 33.266 21.6238L35.0195 15.8279C35.1406 15.4276 34.9997 14.9942 34.6664 14.7415L29.8411 11.0832C29.0856 10.5104 29.477 9.30585 30.4249 9.28654L36.479 9.16316C36.8971 9.15464 37.2658 8.88677 37.4031 8.4917L39.3913 2.77207Z" fill="#FFCC00"/>
<path d="M66.2818 2.77207C66.5931 1.87651 67.8597 1.87651 68.171 2.77208L70.1591 8.4917C70.2964 8.88677 70.6651 9.15464 71.0833 9.16316L77.1374 9.28654C78.0853 9.30585 78.4767 10.5104 77.7211 11.0832L72.8958 14.7415C72.5625 14.9942 72.4217 15.4276 72.5428 15.8279L74.2963 21.6238C74.5708 22.5313 73.5462 23.2758 72.7679 22.7342L67.7976 19.2755C67.4543 19.0366 66.9985 19.0366 66.6552 19.2755L61.6849 22.7342C60.9066 23.2758 59.882 22.5313 60.1565 21.6238L61.91 15.8279C62.0311 15.4276 61.8903 14.9942 61.557 14.7415L56.7317 11.0832C55.9762 10.5104 56.3675 9.30585 57.3155 9.28654L63.3695 9.16316C63.7877 9.15464 64.1564 8.88677 64.2937 8.4917L66.2818 2.77207Z" fill="#FFCC00"/>
<path d="M93.1724 2.77207C93.4837 1.87651 94.7502 1.87651 95.0615 2.77208L97.0497 8.4917C97.187 8.88677 97.5557 9.15464 97.9739 9.16316L104.028 9.28654C104.976 9.30585 105.367 10.5104 104.612 11.0832L99.7864 14.7415C99.4531 14.9942 99.3123 15.4276 99.4334 15.8279L101.187 21.6238C101.461 22.5313 100.437 23.2758 99.6585 22.7342L94.6882 19.2755C94.3448 19.0366 93.8891 19.0366 93.5458 19.2755L88.5754 22.7342C87.7972 23.2758 86.7726 22.5313 87.0471 21.6238L88.8006 15.8279C88.9217 15.4276 88.7809 14.9942 88.4476 14.7415L83.6223 11.0832C82.8667 10.5104 83.2581 9.30585 84.206 9.28654L90.2601 9.16316C90.6783 9.15464 91.0469 8.88677 91.1843 8.4917L93.1724 2.77207Z" fill="#FFCC00"/>
<path d="M120.063 2.77207C120.374 1.87651 121.641 1.87651 121.952 2.77208L123.94 8.4917C124.078 8.88677 124.446 9.15464 124.864 9.16316L130.918 9.28654C131.866 9.30585 132.258 10.5104 131.502 11.0832L126.677 14.7415C126.344 14.9942 126.203 15.4276 126.324 15.8279L128.077 21.6238C128.352 22.5313 127.327 23.2758 126.549 22.7342L121.579 19.2755C121.235 19.0366 120.78 19.0366 120.436 19.2755L115.466 22.7342C114.688 23.2758 113.663 22.5313 113.938 21.6238L115.691 15.8279C115.812 15.4276 115.671 14.9942 115.338 14.7415L110.513 11.0832C109.757 10.5104 110.149 9.30585 111.097 9.28654L117.151 9.16316C117.569 9.15464 117.938 8.88677 118.075 8.4917L120.063 2.77207Z" fill="#FFCC00"/>
</svg>
