<svg width="14" height="15" viewBox="0 0 14 15" fill="none" xmlns="http://www.w3.org/2000/svg">
<path d="M6.71273 14.043H7.29567C10.4602 14.043 12.0428 14.043 13.0256 13.0602C14.0084 12.0774 14 10.4954 14 7.33866V6.7473C14 3.59112 14 2.00857 13.0256 1.02577C12.0512 0.0429716 10.4602 0.0429688 7.29567 0.0429688H6.71273C3.54761 0.0429688 1.9656 0.0429716 0.9828 1.02577C-6.25849e-07 2.00857 0 3.59 0 6.7473V7.33866C0 10.4954 -6.25849e-07 12.0774 0.9828 13.0602C1.9656 14.043 3.54761 14.043 6.71273 14.043Z" fill="#45403D"/>
<path d="M7.51261 10.137C4.35589 10.137 2.44014 7.94683 2.36566 4.30737H3.96446C4.01431 6.98083 5.23061 8.11537 6.16304 8.34665V4.30737H7.69574V6.61401C8.5951 6.51434 9.53592 5.46489 9.85286 4.30737H11.3598C11.1185 5.73146 10.0942 6.78089 9.36958 7.21377C10.0942 7.56377 11.2601 8.47992 11.7098 10.137H10.0528C9.70279 9.02928 8.84486 8.17137 7.69574 8.05489V10.137H7.51261Z" fill="white"/>
</svg>
